<svg xmlns="http://www.w3.org/2000/svg" fill="none" viewBox="0 0 394 80"><path fill="#000" d="M262 0h68.5v12.7h-27.2v66.6h-13.6V12.7H262V0ZM149 0v12.7h38.2v66.6h13.6V12.7H239V0h-90Zm-28.3 18.7c.7-1 1.9-1.7 3.5-1.7 1.6 0 2.8.7 3.5 1.7.7 1 1.1 2.3 1.1 3.8v46.2c0 1.5-.4 2.8-1.1 3.8-.7 1-1.9 1.7-3.5 1.7-1.6 0-2.8-.7-3.5-1.7-.7-1-1.1-2.3-1.1-3.8V22.5c0-1.5.4-2.8 1.1-3.8ZM63.7 0v12.7h38.2v66.6h13.6V12.7H154V0H63.7Zm-37 18.7c.7-1 1.9-1.7 3.5-1.7 1.6 0 2.8.7 3.5 1.7.7 1 1.1 2.3 1.1 3.8v46.2c0 1.5-.4 2.8-1.1 3.8-.7 1-1.9 1.7-3.5 1.7-1.6 0-2.8-.7-3.5-1.7-.7-1-1.1-2.3-1.1-3.8V22.5c0-1.5.4-2.8 1.1-3.8ZM0 0v12.7h38.2v66.6h13.6V12.7H90V0H0Z"/></svg>
