<svg xmlns="http://www.w3.org/2000/svg" fill="none" viewBox="0 0 283 64"><path fill="#000" d="M141.04 16c-11.04 0-19 7.2-19 18s8.96 18 20 18c6.67 0 12.55-2.64 16.19-7.09l-7.65-4.73c-2.01 1.46-4.52 2.3-8.54 2.3-4.66 0-8.57-3.12-9.96-7.4H142v-4.7h-27.8c-.6 2.66-2.23 5.02-4.56 6.7 2.33 1.67 4.96 2.67 7.8 2.67 11.04 0 19-7.2 19-18s-8.96-18-20-18Zm-9.96 14.5c1.38-4.28 5.3-7.4 9.96-7.4 4.66 0 8.57 3.12 9.96 7.4H131.08Z"/><path fill="#000" d="M248.04 16c-11.04 0-19 7.2-19 18s8.96 18 20 18c6.67 0 12.55-2.64 16.19-7.09l-7.65-4.73c-2.01 1.46-4.52 2.3-8.54 2.3-4.66 0-8.57-3.12-9.96-7.4H249v-4.7h-27.8c-.6 2.66-2.23 5.02-4.56 6.7 2.33 1.67 4.96 2.67 7.8 2.67 11.04 0 19-7.2 19-18s-8.96-18-20-18Zm-9.96 14.5c1.38-4.28 5.3-7.4 9.96-7.4 4.66 0 8.57 3.12 9.96 7.4H238.08Z"/><path fill="#000" d="M70.56 48H57.04V16h13.52c7.04 0 12.1 2.23 15.58 6.7 3.48 4.47 5.22 10.58 5.22 18.33 0 7.75-1.74 13.86-5.22 18.33C82.66 45.77 77.6 48 70.56 48Zm0-35.2c-4.1 0-7.04 1.33-8.82 4-1.78 2.67-2.67 6.58-2.67 11.73 0 5.15.89 9.06 2.67 11.73 1.78 2.67 4.72 4 8.82 4h4.8V12.8h-4.8Z"/><path fill="#000" d="M283 16h-13.52v32H283V16Z"/></svg>
